<svg id="service_icon" xmlns="http://www.w3.org/2000/svg" xmlns:xlink="http://www.w3.org/1999/xlink" width="500" height="139.664" viewBox="0 0 500 139.664">
  <defs>
    <filter id="CraftBeerBar_Database" x="78.73" y="13.664" width="328" height="126" filterUnits="userSpaceOnUse">
      <feOffset dy="10" input="SourceAlpha"/>
      <feGaussianBlur stdDeviation="5" result="blur"/>
      <feFlood flood-color="#e8e249" flood-opacity="0.161"/>
      <feComposite operator="in" in2="blur"/>
      <feComposite in="SourceGraphic"/>
    </filter>
  </defs>
  <g id="beer_icon">
    <rect id="長方形_10" data-name="長方形 10" width="133.658" height="135.329" fill="none"/>
    <g id="グループ_11" data-name="グループ 11" transform="translate(9.586 4.6)">
      <g id="楕円形_5" data-name="楕円形 5" transform="translate(69.388 44.471)" fill="#fff" stroke="#000" stroke-width="5">
        <circle cx="24.919" cy="24.919" r="24.919" stroke="none"/>
        <circle cx="24.919" cy="24.919" r="22.419" fill="none"/>
      </g>
      <g id="楕円形_6" data-name="楕円形 6" transform="translate(77.055 52.138)" fill="none" stroke="#000" stroke-width="5">
        <ellipse cx="17.635" cy="18.018" rx="17.635" ry="18.018" stroke="none"/>
        <ellipse cx="17.635" cy="18.018" rx="15.135" ry="15.518" fill="none"/>
      </g>
      <g id="グループ_7" data-name="グループ 7" transform="translate(0 61.339)">
        <g id="グループ_6" data-name="グループ 6" transform="translate(0 19.205)">
          <path id="パス_2" data-name="パス 2" d="M48.173,46.482A101.093,101.093,0,0,1,30.1,44.909a68.074,68.074,0,0,1-14.661-4.258,39.232,39.232,0,0,1-5.549-2.9A23.262,23.262,0,0,1,5.8,34.506c-2.187-2.23-3.3-4.556-3.3-6.914,0-.062,0-.122,0-.179l.035-1.444H2.5V2.5H93.847V25.969h-.035l.033,1.444c0,.058,0,.119,0,.179,0,2.358-1.109,4.685-3.3,6.914a23.262,23.262,0,0,1-4.093,3.247,39.23,39.23,0,0,1-5.549,2.9,68.074,68.074,0,0,1-14.661,4.258A101.093,101.093,0,0,1,48.173,46.482Z" transform="translate(-1.09 -1.09)" fill="#f1fa06"/>
          <path id="パス_3" data-name="パス 3" d="M47.083,43.982A99.683,99.683,0,0,0,64.9,42.432,66.674,66.674,0,0,0,79.26,38.267a37.826,37.826,0,0,0,5.349-2.792,21.862,21.862,0,0,0,3.845-3.046c1.92-1.957,2.893-3.951,2.893-5.927,0-.049,0-.1,0-.144l-.068-2.888h.07V2.819H2.819v20.65h.072l-.071,2.888c0,.045,0,.094,0,.144,0,1.976.973,3.97,2.893,5.927a21.862,21.862,0,0,0,3.845,3.046,37.826,37.826,0,0,0,5.349,2.792,66.673,66.673,0,0,0,14.355,4.166,99.683,99.683,0,0,0,17.821,1.549m0,2.819C21.08,46.8,0,37.713,0,26.5q0-.107,0-.213H0V0H94.166V26.289h0q0,.106,0,.213C94.166,37.713,73.086,46.8,47.083,46.8Z" transform="translate(0 0)"/>
        </g>
        <g id="楕円形_7" data-name="楕円形 7" transform="translate(0.382 0)" fill="#f1fa06" stroke="#000" stroke-width="5">
          <ellipse cx="46.771" cy="20.318" rx="46.771" ry="20.318" stroke="none"/>
          <ellipse cx="46.771" cy="20.318" rx="44.271" ry="17.818" fill="none"/>
        </g>
      </g>
      <g id="グループ_9" data-name="グループ 9" transform="translate(0 30.669)">
        <g id="グループ_8" data-name="グループ 8" transform="translate(0 18.862)">
          <path id="パス_4" data-name="パス 4" d="M48.173,46.482A101.093,101.093,0,0,1,30.1,44.909a68.074,68.074,0,0,1-14.661-4.258,39.232,39.232,0,0,1-5.549-2.9A23.262,23.262,0,0,1,5.8,34.506c-2.187-2.23-3.3-4.556-3.3-6.914,0-.062,0-.122,0-.179l.035-1.444H2.5V2.5H93.847V25.969h-.035l.033,1.444c0,.058,0,.119,0,.179,0,2.358-1.109,4.685-3.3,6.914a23.262,23.262,0,0,1-4.093,3.247,39.23,39.23,0,0,1-5.549,2.9,68.074,68.074,0,0,1-14.661,4.258A101.093,101.093,0,0,1,48.173,46.482Z" transform="translate(-1.09 -1.09)" fill="#f1fa06"/>
          <path id="パス_5" data-name="パス 5" d="M47.083,43.982A99.683,99.683,0,0,0,64.9,42.432,66.674,66.674,0,0,0,79.26,38.267a37.826,37.826,0,0,0,5.349-2.792,21.862,21.862,0,0,0,3.845-3.046c1.92-1.957,2.893-3.951,2.893-5.927,0-.049,0-.1,0-.144l-.068-2.888h.07V2.819H2.819v20.65h.072l-.071,2.888c0,.045,0,.094,0,.144,0,1.976.973,3.97,2.893,5.927a21.862,21.862,0,0,0,3.845,3.046,37.826,37.826,0,0,0,5.349,2.792,66.673,66.673,0,0,0,14.355,4.166,99.683,99.683,0,0,0,17.821,1.549m0,2.819C21.08,46.8,0,37.713,0,26.5q0-.107,0-.213H0V0H94.166V26.289h0q0,.106,0,.213C94.166,37.713,73.086,46.8,47.083,46.8Z" transform="translate(0 0)"/>
        </g>
        <g id="楕円形_8" data-name="楕円形 8" transform="translate(0.382 0)" fill="#f1fa06" stroke="#000" stroke-width="5">
          <ellipse cx="46.771" cy="20.318" rx="46.771" ry="20.318" stroke="none"/>
          <ellipse cx="46.771" cy="20.318" rx="44.271" ry="17.818" fill="none"/>
        </g>
      </g>
      <g id="グループ_10" data-name="グループ 10" transform="translate(0 19.082)">
        <path id="パス_6" data-name="パス 6" d="M48.173,46.482A101.093,101.093,0,0,1,30.1,44.909a68.074,68.074,0,0,1-14.661-4.258,39.232,39.232,0,0,1-5.549-2.9A23.262,23.262,0,0,1,5.8,34.506c-2.187-2.23-3.3-4.556-3.3-6.914,0-.062,0-.122,0-.179l.035-1.444H2.5V2.5H93.847V25.969h-.035l.033,1.444c0,.058,0,.119,0,.179,0,2.358-1.109,4.685-3.3,6.914a23.262,23.262,0,0,1-4.093,3.247,39.23,39.23,0,0,1-5.549,2.9,68.074,68.074,0,0,1-14.661,4.258A101.093,101.093,0,0,1,48.173,46.482Z" transform="translate(-1.09 -1.09)" fill="#fff"/>
        <path id="パス_7" data-name="パス 7" d="M47.083,43.982A99.683,99.683,0,0,0,64.9,42.432,66.674,66.674,0,0,0,79.26,38.267a37.826,37.826,0,0,0,5.349-2.792,21.862,21.862,0,0,0,3.845-3.046c1.92-1.957,2.893-3.951,2.893-5.927,0-.049,0-.1,0-.144l-.068-2.888h.07V2.819H2.819v20.65h.072l-.071,2.888c0,.045,0,.094,0,.144,0,1.976.973,3.97,2.893,5.927a21.862,21.862,0,0,0,3.845,3.046,37.826,37.826,0,0,0,5.349,2.792,66.673,66.673,0,0,0,14.355,4.166,99.683,99.683,0,0,0,17.821,1.549m0,2.819C21.08,46.8,0,37.713,0,26.5q0-.107,0-.213H0V0H94.166V26.289h0q0,.106,0,.213C94.166,37.713,73.086,46.8,47.083,46.8Z" transform="translate(0 0)"/>
      </g>
      <g id="楕円形_9" data-name="楕円形 9" transform="translate(0.382 0)" fill="#fff" stroke="#000" stroke-width="5">
        <ellipse cx="46.771" cy="20.318" rx="46.771" ry="20.318" stroke="none"/>
        <ellipse cx="46.771" cy="20.318" rx="44.271" ry="17.818" fill="none"/>
      </g>
    </g>
  </g>
  <g transform="matrix(1, 0, 0, 1, 0, 0)" filter="url(#CraftBeerBar_Database)">
    <text id="CraftBeerBar_Database-2" data-name="CraftBeerBar
Database" transform="translate(94.73 19.66)" fill="#f1fa06" stroke="#0f0f0e" stroke-width="1" font-size="40" font-family="Roboto-BoldItalic, Roboto" font-weight="700" font-style="italic"><tspan x="33.137" y="37">CraftBeerBar</tspan><tspan x="65.48" y="77">Database</tspan></text>
  </g>
  <g id="beer_icon-2" data-name="beer_icon" transform="translate(366.342)">
    <rect id="長方形_10-2" data-name="長方形 10" width="133.658" height="135.329" fill="none"/>
    <g id="グループ_11-2" data-name="グループ 11" transform="translate(9.586 4.6)">
      <g id="楕円形_5-2" data-name="楕円形 5" transform="translate(69.388 44.471)" fill="#fff" stroke="#000" stroke-width="5">
        <circle cx="24.919" cy="24.919" r="24.919" stroke="none"/>
        <circle cx="24.919" cy="24.919" r="22.419" fill="none"/>
      </g>
      <g id="楕円形_6-2" data-name="楕円形 6" transform="translate(77.055 52.138)" fill="none" stroke="#000" stroke-width="5">
        <ellipse cx="17.635" cy="18.018" rx="17.635" ry="18.018" stroke="none"/>
        <ellipse cx="17.635" cy="18.018" rx="15.135" ry="15.518" fill="none"/>
      </g>
      <g id="グループ_7-2" data-name="グループ 7" transform="translate(0 61.339)">
        <g id="グループ_6-2" data-name="グループ 6" transform="translate(0 19.205)">
          <path id="パス_2-2" data-name="パス 2" d="M48.173,46.482A101.093,101.093,0,0,1,30.1,44.909a68.074,68.074,0,0,1-14.661-4.258,39.232,39.232,0,0,1-5.549-2.9A23.262,23.262,0,0,1,5.8,34.506c-2.187-2.23-3.3-4.556-3.3-6.914,0-.062,0-.122,0-.179l.035-1.444H2.5V2.5H93.847V25.969h-.035l.033,1.444c0,.058,0,.119,0,.179,0,2.358-1.109,4.685-3.3,6.914a23.262,23.262,0,0,1-4.093,3.247,39.23,39.23,0,0,1-5.549,2.9,68.074,68.074,0,0,1-14.661,4.258A101.093,101.093,0,0,1,48.173,46.482Z" transform="translate(-1.09 -1.09)" fill="#f1fa06"/>
          <path id="パス_3-2" data-name="パス 3" d="M47.083,43.982A99.683,99.683,0,0,0,64.9,42.432,66.674,66.674,0,0,0,79.26,38.267a37.826,37.826,0,0,0,5.349-2.792,21.862,21.862,0,0,0,3.845-3.046c1.92-1.957,2.893-3.951,2.893-5.927,0-.049,0-.1,0-.144l-.068-2.888h.07V2.819H2.819v20.65h.072l-.071,2.888c0,.045,0,.094,0,.144,0,1.976.973,3.97,2.893,5.927a21.862,21.862,0,0,0,3.845,3.046,37.826,37.826,0,0,0,5.349,2.792,66.673,66.673,0,0,0,14.355,4.166,99.683,99.683,0,0,0,17.821,1.549m0,2.819C21.08,46.8,0,37.713,0,26.5q0-.107,0-.213H0V0H94.166V26.289h0q0,.106,0,.213C94.166,37.713,73.086,46.8,47.083,46.8Z" transform="translate(0 0)"/>
        </g>
        <g id="楕円形_7-2" data-name="楕円形 7" transform="translate(0.382 0)" fill="#f1fa06" stroke="#000" stroke-width="5">
          <ellipse cx="46.771" cy="20.318" rx="46.771" ry="20.318" stroke="none"/>
          <ellipse cx="46.771" cy="20.318" rx="44.271" ry="17.818" fill="none"/>
        </g>
      </g>
      <g id="グループ_9-2" data-name="グループ 9" transform="translate(0 30.669)">
        <g id="グループ_8-2" data-name="グループ 8" transform="translate(0 18.862)">
          <path id="パス_4-2" data-name="パス 4" d="M48.173,46.482A101.093,101.093,0,0,1,30.1,44.909a68.074,68.074,0,0,1-14.661-4.258,39.232,39.232,0,0,1-5.549-2.9A23.262,23.262,0,0,1,5.8,34.506c-2.187-2.23-3.3-4.556-3.3-6.914,0-.062,0-.122,0-.179l.035-1.444H2.5V2.5H93.847V25.969h-.035l.033,1.444c0,.058,0,.119,0,.179,0,2.358-1.109,4.685-3.3,6.914a23.262,23.262,0,0,1-4.093,3.247,39.23,39.23,0,0,1-5.549,2.9,68.074,68.074,0,0,1-14.661,4.258A101.093,101.093,0,0,1,48.173,46.482Z" transform="translate(-1.09 -1.09)" fill="#f1fa06"/>
          <path id="パス_5-2" data-name="パス 5" d="M47.083,43.982A99.683,99.683,0,0,0,64.9,42.432,66.674,66.674,0,0,0,79.26,38.267a37.826,37.826,0,0,0,5.349-2.792,21.862,21.862,0,0,0,3.845-3.046c1.92-1.957,2.893-3.951,2.893-5.927,0-.049,0-.1,0-.144l-.068-2.888h.07V2.819H2.819v20.65h.072l-.071,2.888c0,.045,0,.094,0,.144,0,1.976.973,3.97,2.893,5.927a21.862,21.862,0,0,0,3.845,3.046,37.826,37.826,0,0,0,5.349,2.792,66.673,66.673,0,0,0,14.355,4.166,99.683,99.683,0,0,0,17.821,1.549m0,2.819C21.08,46.8,0,37.713,0,26.5q0-.107,0-.213H0V0H94.166V26.289h0q0,.106,0,.213C94.166,37.713,73.086,46.8,47.083,46.8Z" transform="translate(0 0)"/>
        </g>
        <g id="楕円形_8-2" data-name="楕円形 8" transform="translate(0.382 0)" fill="#f1fa06" stroke="#000" stroke-width="5">
          <ellipse cx="46.771" cy="20.318" rx="46.771" ry="20.318" stroke="none"/>
          <ellipse cx="46.771" cy="20.318" rx="44.271" ry="17.818" fill="none"/>
        </g>
      </g>
      <g id="グループ_10-2" data-name="グループ 10" transform="translate(0 19.082)">
        <path id="パス_6-2" data-name="パス 6" d="M48.173,46.482A101.093,101.093,0,0,1,30.1,44.909a68.074,68.074,0,0,1-14.661-4.258,39.232,39.232,0,0,1-5.549-2.9A23.262,23.262,0,0,1,5.8,34.506c-2.187-2.23-3.3-4.556-3.3-6.914,0-.062,0-.122,0-.179l.035-1.444H2.5V2.5H93.847V25.969h-.035l.033,1.444c0,.058,0,.119,0,.179,0,2.358-1.109,4.685-3.3,6.914a23.262,23.262,0,0,1-4.093,3.247,39.23,39.23,0,0,1-5.549,2.9,68.074,68.074,0,0,1-14.661,4.258A101.093,101.093,0,0,1,48.173,46.482Z" transform="translate(-1.09 -1.09)" fill="#fff"/>
        <path id="パス_7-2" data-name="パス 7" d="M47.083,43.982A99.683,99.683,0,0,0,64.9,42.432,66.674,66.674,0,0,0,79.26,38.267a37.826,37.826,0,0,0,5.349-2.792,21.862,21.862,0,0,0,3.845-3.046c1.92-1.957,2.893-3.951,2.893-5.927,0-.049,0-.1,0-.144l-.068-2.888h.07V2.819H2.819v20.65h.072l-.071,2.888c0,.045,0,.094,0,.144,0,1.976.973,3.97,2.893,5.927a21.862,21.862,0,0,0,3.845,3.046,37.826,37.826,0,0,0,5.349,2.792,66.673,66.673,0,0,0,14.355,4.166,99.683,99.683,0,0,0,17.821,1.549m0,2.819C21.08,46.8,0,37.713,0,26.5q0-.107,0-.213H0V0H94.166V26.289h0q0,.106,0,.213C94.166,37.713,73.086,46.8,47.083,46.8Z" transform="translate(0 0)"/>
      </g>
      <g id="楕円形_9-2" data-name="楕円形 9" transform="translate(0.382 0)" fill="#fff" stroke="#000" stroke-width="5">
        <ellipse cx="46.771" cy="20.318" rx="46.771" ry="20.318" stroke="none"/>
        <ellipse cx="46.771" cy="20.318" rx="44.271" ry="17.818" fill="none"/>
      </g>
    </g>
  </g>
</svg>
