<svg id="button_search" xmlns="http://www.w3.org/2000/svg" xmlns:xlink="http://www.w3.org/1999/xlink" width="145" height="77" viewBox="0 0 145 77">
  <defs>
    <clipPath id="clip-path">
      <rect id="長方形_4" data-name="長方形 4" width="50" height="51" transform="translate(742 353)" stroke="#707070" stroke-width="1"/>
    </clipPath>
  </defs>
  <g id="パス_1" data-name="パス 1" fill="#f1fa06">
    <path d="M 109 76.5 L 36 76.5 C 31.20730972290039 76.5 26.55823707580566 75.56145477294922 22.18194580078125 73.71043395996094 C 17.95469093322754 71.92245483398438 14.15812683105469 69.36270904541016 10.89770889282227 66.10228729248047 C 7.637290954589844 62.84187316894531 5.077545642852783 59.04531097412109 3.289563655853271 54.81805419921875 C 1.43854546546936 50.44176483154297 0.5 45.79269027709961 0.5 41 L 0.5 36 C 0.5 31.20730972290039 1.43854546546936 26.55823707580566 3.289563655853271 22.18194580078125 C 5.077545642852783 17.95469093322754 7.637290954589844 14.15812683105469 10.89770889282227 10.89770889282227 C 14.15812683105469 7.637290954589844 17.95469093322754 5.077545642852783 22.18194580078125 3.289563655853271 C 26.55823707580566 1.43854546546936 31.20730972290039 0.5 36 0.5 L 109 0.5 C 113.7926940917969 0.5 118.441764831543 1.43854546546936 122.8180541992188 3.289563655853271 C 127.0453109741211 5.077545642852783 130.8418731689453 7.637290954589844 134.102294921875 10.89770889282227 C 137.3627166748047 14.15812683105469 139.9224548339844 17.95469093322754 141.7104339599609 22.18194580078125 C 143.5614471435547 26.55823707580566 144.5 31.20730972290039 144.5 36 L 144.5 41 C 144.5 45.79269027709961 143.5614471435547 50.44176483154297 141.7104339599609 54.81805419921875 C 139.9224548339844 59.04531097412109 137.3627166748047 62.84187316894531 134.102294921875 66.10228729248047 C 130.8418731689453 69.36270904541016 127.0453109741211 71.92245483398438 122.8180541992188 73.71043395996094 C 118.441764831543 75.56145477294922 113.7926940917969 76.5 109 76.5 Z" stroke="none"/>
    <path d="M 36 1 C 31.27458190917969 1 26.69106292724609 1.925262451171875 22.37671661376953 3.75006103515625 C 18.20906066894531 5.512840270996094 14.46592712402344 8.036598205566406 11.25126647949219 11.25125885009766 C 8.036605834960938 14.46591949462891 5.512832641601562 18.20906066894531 3.75006103515625 22.3767204284668 C 1.925262451171875 26.69105911254883 1 31.27457809448242 1 36 L 1 41 C 1 45.72541809082031 1.925262451171875 50.30894088745117 3.75006103515625 54.6232795715332 C 5.512832641601562 58.79093933105469 8.036605834960938 62.53408050537109 11.25126647949219 65.74874114990234 C 14.46592712402344 68.96340179443359 18.20906066894531 71.48715972900391 22.37671661376953 73.24993896484375 C 26.69106292724609 75.07473754882812 31.27458190917969 76 36 76 L 109 76 C 113.7254028320312 76 118.3089447021484 75.07473754882812 122.6232604980469 73.24993896484375 C 126.7909240722656 71.48715972900391 130.5340728759766 68.96340179443359 133.7487335205078 65.74874114990234 C 136.9633941650391 62.53408050537109 139.4871673583984 58.79093933105469 141.2499389648438 54.6232795715332 C 143.0747375488281 50.30894088745117 144 45.72541809082031 144 41 L 144 36 C 144 31.27457809448242 143.0747375488281 26.69105911254883 141.2499389648438 22.3767204284668 C 139.4871673583984 18.20906066894531 136.9633941650391 14.46591949462891 133.7487335205078 11.25125885009766 C 130.5340728759766 8.036598205566406 126.7909240722656 5.512840270996094 122.6232604980469 3.75006103515625 C 118.3089447021484 1.925262451171875 113.7254028320312 1 109 1 L 36 1 M 36 0 L 109 0 C 128.8822326660156 0 145 16.11774063110352 145 36 L 145 41 C 145 60.88225936889648 128.8822326660156 77 109 77 L 36 77 C 16.11773681640625 77 0 60.88225936889648 0 41 L 0 36 C 0 16.11774063110352 16.11773681640625 0 36 0 Z" stroke="none" fill="#707070"/>
  </g>
  <g id="マスクグループ_2" data-name="マスクグループ 2" transform="translate(-694 -340)" clip-path="url(#clip-path)">
    <path id="ifn0639" d="M42.361,268.7a20.4,20.4,0,0,0-20.329,20.329,20.178,20.178,0,0,0,3.544,11.425l-10.53,10.524A4.987,4.987,0,1,0,22.1,318.03l10.95-10.953A20.32,20.32,0,1,0,42.36,268.7Zm0,8.683a11.58,11.58,0,1,1-8.254,3.392A11.646,11.646,0,0,1,42.361,277.383Z" transform="translate(729.011 84.3)"/>
  </g>
</svg>
